<mxfile host="app.diagrams.net" agent="Mozilla/5.0 (Windows NT 10.0; Win64; x64; rv:135.0) Gecko/20100101 Firefox/135.0" version="26.0.16">
  <diagram name="Seite-1" id="aof9V1836AsT8i5Dau2G">
    <mxGraphModel dx="1687" dy="854" grid="1" gridSize="10" guides="1" tooltips="1" connect="1" arrows="1" fold="1" page="1" pageScale="1" pageWidth="827" pageHeight="1169" math="0" shadow="0">
      <root>
        <mxCell id="0" />
        <mxCell id="1" parent="0" />
        <mxCell id="u30mcsJb7srmViUrN2Fv-10" value="GUI" style="rounded=1;whiteSpace=wrap;html=1;" parent="1" vertex="1">
          <mxGeometry x="170" y="200" width="120" height="60" as="geometry" />
        </mxCell>
        <mxCell id="u30mcsJb7srmViUrN2Fv-24" style="edgeStyle=orthogonalEdgeStyle;rounded=0;orthogonalLoop=1;jettySize=auto;html=1;exitX=0.75;exitY=1;exitDx=0;exitDy=0;entryX=0.75;entryY=0;entryDx=0;entryDy=0;" parent="1" source="u30mcsJb7srmViUrN2Fv-12" target="u30mcsJb7srmViUrN2Fv-21" edge="1">
          <mxGeometry relative="1" as="geometry" />
        </mxCell>
        <mxCell id="u30mcsJb7srmViUrN2Fv-12" value="&lt;div&gt;UiAutomaton&lt;/div&gt;&lt;div&gt;&lt;br&gt;&lt;/div&gt;" style="rounded=1;whiteSpace=wrap;html=1;" parent="1" vertex="1">
          <mxGeometry x="570" y="220" width="120" height="60" as="geometry" />
        </mxCell>
        <mxCell id="u30mcsJb7srmViUrN2Fv-18" style="edgeStyle=orthogonalEdgeStyle;rounded=0;orthogonalLoop=1;jettySize=auto;html=1;exitX=0.75;exitY=1;exitDx=0;exitDy=0;entryX=0;entryY=0.5;entryDx=0;entryDy=0;" parent="1" source="u30mcsJb7srmViUrN2Fv-13" target="u30mcsJb7srmViUrN2Fv-10" edge="1">
          <mxGeometry relative="1" as="geometry" />
        </mxCell>
        <mxCell id="T94tbjM7u6pAyk36soGo-21" style="edgeStyle=orthogonalEdgeStyle;rounded=0;orthogonalLoop=1;jettySize=auto;html=1;exitX=0.5;exitY=1;exitDx=0;exitDy=0;entryX=0;entryY=0.5;entryDx=0;entryDy=0;" edge="1" parent="1" source="u30mcsJb7srmViUrN2Fv-13" target="u30mcsJb7srmViUrN2Fv-50">
          <mxGeometry relative="1" as="geometry">
            <Array as="points">
              <mxPoint x="90" y="280" />
              <mxPoint x="220" y="280" />
              <mxPoint x="220" y="420" />
            </Array>
          </mxGeometry>
        </mxCell>
        <mxCell id="T94tbjM7u6pAyk36soGo-23" value="Backend Start" style="edgeLabel;html=1;align=center;verticalAlign=middle;resizable=0;points=[];" vertex="1" connectable="0" parent="T94tbjM7u6pAyk36soGo-21">
          <mxGeometry x="0.8148" y="-1" relative="1" as="geometry">
            <mxPoint as="offset" />
          </mxGeometry>
        </mxCell>
        <mxCell id="u30mcsJb7srmViUrN2Fv-13" value="Main App" style="rounded=1;whiteSpace=wrap;html=1;" parent="1" vertex="1">
          <mxGeometry x="30" y="40" width="120" height="60" as="geometry" />
        </mxCell>
        <mxCell id="u30mcsJb7srmViUrN2Fv-16" style="edgeStyle=orthogonalEdgeStyle;rounded=0;orthogonalLoop=1;jettySize=auto;html=1;exitX=0.5;exitY=0;exitDx=0;exitDy=0;entryX=0.425;entryY=0;entryDx=0;entryDy=0;entryPerimeter=0;" parent="1" source="u30mcsJb7srmViUrN2Fv-10" target="u30mcsJb7srmViUrN2Fv-12" edge="1">
          <mxGeometry relative="1" as="geometry">
            <Array as="points">
              <mxPoint x="240" y="200" />
              <mxPoint x="240" y="140" />
              <mxPoint x="621" y="140" />
            </Array>
          </mxGeometry>
        </mxCell>
        <mxCell id="u30mcsJb7srmViUrN2Fv-17" style="edgeStyle=orthogonalEdgeStyle;rounded=0;orthogonalLoop=1;jettySize=auto;html=1;exitX=0.5;exitY=0;exitDx=0;exitDy=0;entryX=0.5;entryY=0;entryDx=0;entryDy=0;" parent="1" source="u30mcsJb7srmViUrN2Fv-12" target="u30mcsJb7srmViUrN2Fv-10" edge="1">
          <mxGeometry relative="1" as="geometry">
            <mxPoint x="220" y="190" as="targetPoint" />
            <Array as="points">
              <mxPoint x="630" y="130" />
              <mxPoint x="230" y="130" />
            </Array>
          </mxGeometry>
        </mxCell>
        <mxCell id="u30mcsJb7srmViUrN2Fv-19" style="edgeStyle=orthogonalEdgeStyle;rounded=0;orthogonalLoop=1;jettySize=auto;html=1;entryX=0.5;entryY=0;entryDx=0;entryDy=0;" parent="1" source="u30mcsJb7srmViUrN2Fv-10" target="u30mcsJb7srmViUrN2Fv-10" edge="1">
          <mxGeometry relative="1" as="geometry">
            <Array as="points">
              <mxPoint x="230" y="230" />
              <mxPoint x="230" y="230" />
            </Array>
          </mxGeometry>
        </mxCell>
        <mxCell id="u30mcsJb7srmViUrN2Fv-20" value="" style="endArrow=none;dashed=1;html=1;rounded=0;" parent="1" edge="1">
          <mxGeometry width="50" height="50" relative="1" as="geometry">
            <mxPoint x="4" y="380" as="sourcePoint" />
            <mxPoint x="824" y="380" as="targetPoint" />
          </mxGeometry>
        </mxCell>
        <mxCell id="u30mcsJb7srmViUrN2Fv-23" style="edgeStyle=orthogonalEdgeStyle;rounded=0;orthogonalLoop=1;jettySize=auto;html=1;exitX=0.5;exitY=0;exitDx=0;exitDy=0;entryX=0.5;entryY=1;entryDx=0;entryDy=0;" parent="1" source="u30mcsJb7srmViUrN2Fv-21" target="u30mcsJb7srmViUrN2Fv-12" edge="1">
          <mxGeometry relative="1" as="geometry" />
        </mxCell>
        <mxCell id="u30mcsJb7srmViUrN2Fv-21" value="Bridge" style="rounded=1;whiteSpace=wrap;html=1;" parent="1" vertex="1">
          <mxGeometry x="570" y="350" width="120" height="60" as="geometry" />
        </mxCell>
        <mxCell id="u30mcsJb7srmViUrN2Fv-29" value="" style="shape=table;startSize=0;container=1;collapsible=0;childLayout=tableLayout;fontSize=16;" parent="1" vertex="1">
          <mxGeometry x="230" y="620" width="430" height="40" as="geometry" />
        </mxCell>
        <mxCell id="u30mcsJb7srmViUrN2Fv-30" value="" style="shape=tableRow;horizontal=0;startSize=0;swimlaneHead=0;swimlaneBody=0;strokeColor=inherit;top=0;left=0;bottom=0;right=0;collapsible=0;dropTarget=0;fillColor=none;points=[[0,0.5],[1,0.5]];portConstraint=eastwest;fontSize=16;" parent="u30mcsJb7srmViUrN2Fv-29" vertex="1">
          <mxGeometry width="430" height="40" as="geometry" />
        </mxCell>
        <mxCell id="u30mcsJb7srmViUrN2Fv-31" value="&lt;b&gt;&lt;font style=&quot;font-size: 12px;&quot;&gt;AutomatonBridge&lt;/font&gt;&lt;/b&gt;" style="shape=partialRectangle;html=1;whiteSpace=wrap;connectable=0;overflow=hidden;top=0;left=0;bottom=0;right=0;pointerEvents=1;fontSize=16;" parent="u30mcsJb7srmViUrN2Fv-30" vertex="1">
          <mxGeometry width="144" height="40" as="geometry">
            <mxRectangle width="144" height="40" as="alternateBounds" />
          </mxGeometry>
        </mxCell>
        <mxCell id="u30mcsJb7srmViUrN2Fv-32" value="DFA" style="shape=partialRectangle;html=1;whiteSpace=wrap;connectable=0;strokeColor=#666666;overflow=hidden;fillColor=#f5f5f5;top=0;left=0;bottom=0;right=0;pointerEvents=1;fontSize=16;fontColor=#333333;" parent="u30mcsJb7srmViUrN2Fv-30" vertex="1">
          <mxGeometry x="144" width="142" height="40" as="geometry">
            <mxRectangle width="142" height="40" as="alternateBounds" />
          </mxGeometry>
        </mxCell>
        <mxCell id="u30mcsJb7srmViUrN2Fv-33" value="..." style="shape=partialRectangle;html=1;whiteSpace=wrap;connectable=0;strokeColor=#666666;overflow=hidden;fillColor=#f5f5f5;top=0;left=0;bottom=0;right=0;pointerEvents=1;fontSize=16;fontColor=#333333;" parent="u30mcsJb7srmViUrN2Fv-30" vertex="1">
          <mxGeometry x="286" width="144" height="40" as="geometry">
            <mxRectangle width="144" height="40" as="alternateBounds" />
          </mxGeometry>
        </mxCell>
        <mxCell id="u30mcsJb7srmViUrN2Fv-48" style="edgeStyle=orthogonalEdgeStyle;rounded=0;orthogonalLoop=1;jettySize=auto;html=1;entryX=0.808;entryY=1.017;entryDx=0;entryDy=0;entryPerimeter=0;" parent="1" target="u30mcsJb7srmViUrN2Fv-50" edge="1">
          <mxGeometry relative="1" as="geometry">
            <mxPoint x="410" y="453" as="targetPoint" />
            <Array as="points">
              <mxPoint x="651" y="420" />
              <mxPoint x="651" y="410" />
              <mxPoint x="650" y="410" />
              <mxPoint x="650" y="510" />
              <mxPoint x="407" y="510" />
            </Array>
            <mxPoint x="650" y="420" as="sourcePoint" />
          </mxGeometry>
        </mxCell>
        <mxCell id="u30mcsJb7srmViUrN2Fv-49" style="edgeStyle=orthogonalEdgeStyle;rounded=0;orthogonalLoop=1;jettySize=auto;html=1;exitX=0.917;exitY=0.972;exitDx=0;exitDy=0;entryX=0.581;entryY=1;entryDx=0;entryDy=0;entryPerimeter=0;exitPerimeter=0;" parent="1" source="u30mcsJb7srmViUrN2Fv-50" target="u30mcsJb7srmViUrN2Fv-21" edge="1">
          <mxGeometry relative="1" as="geometry">
            <Array as="points">
              <mxPoint x="420" y="500" />
              <mxPoint x="640" y="500" />
            </Array>
          </mxGeometry>
        </mxCell>
        <mxCell id="u30mcsJb7srmViUrN2Fv-50" value="SImulation Loader" style="rounded=1;whiteSpace=wrap;html=1;" parent="1" vertex="1">
          <mxGeometry x="310" y="390" width="120" height="60" as="geometry" />
        </mxCell>
        <mxCell id="u30mcsJb7srmViUrN2Fv-61" value="" style="shape=flexArrow;endArrow=classic;html=1;rounded=0;entryX=1;entryY=0.5;entryDx=0;entryDy=0;endWidth=32;endSize=6;" parent="1" target="u30mcsJb7srmViUrN2Fv-13" edge="1">
          <mxGeometry width="50" height="50" relative="1" as="geometry">
            <mxPoint x="240" y="70" as="sourcePoint" />
            <mxPoint x="404" y="70" as="targetPoint" />
          </mxGeometry>
        </mxCell>
        <mxCell id="T94tbjM7u6pAyk36soGo-1" value="Backend Thread" style="text;html=1;align=center;verticalAlign=middle;whiteSpace=wrap;rounded=0;rotation=-90;" vertex="1" parent="1">
          <mxGeometry x="-30" y="460" width="100" height="30" as="geometry" />
        </mxCell>
        <mxCell id="T94tbjM7u6pAyk36soGo-2" value="Main Thread" style="text;html=1;align=center;verticalAlign=middle;whiteSpace=wrap;rounded=0;rotation=-90;" vertex="1" parent="1">
          <mxGeometry x="-40" y="210" width="120" height="30" as="geometry" />
        </mxCell>
        <mxCell id="T94tbjM7u6pAyk36soGo-5" value="AutomatonSimulator" style="rounded=1;whiteSpace=wrap;html=1;" vertex="1" parent="1">
          <mxGeometry x="230" y="500" width="120" height="60" as="geometry" />
        </mxCell>
        <mxCell id="T94tbjM7u6pAyk36soGo-6" style="edgeStyle=orthogonalEdgeStyle;rounded=0;orthogonalLoop=1;jettySize=auto;html=1;exitX=0.25;exitY=0;exitDx=0;exitDy=0;entryX=0.575;entryY=0.933;entryDx=0;entryDy=0;entryPerimeter=0;" edge="1" parent="1" source="u30mcsJb7srmViUrN2Fv-29" target="T94tbjM7u6pAyk36soGo-5">
          <mxGeometry relative="1" as="geometry" />
        </mxCell>
        <mxCell id="T94tbjM7u6pAyk36soGo-9" style="edgeStyle=orthogonalEdgeStyle;rounded=0;orthogonalLoop=1;jettySize=auto;html=1;exitX=1;exitY=0;exitDx=0;exitDy=0;entryX=0.333;entryY=0.983;entryDx=0;entryDy=0;entryPerimeter=0;" edge="1" parent="1" source="T94tbjM7u6pAyk36soGo-5" target="u30mcsJb7srmViUrN2Fv-50">
          <mxGeometry relative="1" as="geometry" />
        </mxCell>
        <mxCell id="T94tbjM7u6pAyk36soGo-10" style="edgeStyle=orthogonalEdgeStyle;rounded=0;orthogonalLoop=1;jettySize=auto;html=1;exitX=0.25;exitY=1;exitDx=0;exitDy=0;entryX=0.917;entryY=-0.067;entryDx=0;entryDy=0;entryPerimeter=0;" edge="1" parent="1" source="u30mcsJb7srmViUrN2Fv-50" target="T94tbjM7u6pAyk36soGo-5">
          <mxGeometry relative="1" as="geometry" />
        </mxCell>
        <mxCell id="T94tbjM7u6pAyk36soGo-14" style="edgeStyle=orthogonalEdgeStyle;rounded=0;orthogonalLoop=1;jettySize=auto;html=1;exitX=0.25;exitY=1;exitDx=0;exitDy=0;entryX=0;entryY=0.5;entryDx=0;entryDy=0;" edge="1" parent="1" source="T94tbjM7u6pAyk36soGo-11" target="u30mcsJb7srmViUrN2Fv-30">
          <mxGeometry relative="1" as="geometry" />
        </mxCell>
        <mxCell id="T94tbjM7u6pAyk36soGo-15" value="Initailsation" style="edgeLabel;html=1;align=center;verticalAlign=middle;resizable=0;points=[];" vertex="1" connectable="0" parent="T94tbjM7u6pAyk36soGo-14">
          <mxGeometry x="0.5244" relative="1" as="geometry">
            <mxPoint as="offset" />
          </mxGeometry>
        </mxCell>
        <mxCell id="T94tbjM7u6pAyk36soGo-11" value="ExtensionLoader" style="rounded=1;whiteSpace=wrap;html=1;" vertex="1" parent="1">
          <mxGeometry x="10" y="320" width="120" height="60" as="geometry" />
        </mxCell>
        <mxCell id="T94tbjM7u6pAyk36soGo-13" style="edgeStyle=orthogonalEdgeStyle;rounded=0;orthogonalLoop=1;jettySize=auto;html=1;exitX=0.25;exitY=1;exitDx=0;exitDy=0;entryX=0.417;entryY=0.05;entryDx=0;entryDy=0;entryPerimeter=0;" edge="1" parent="1" source="u30mcsJb7srmViUrN2Fv-13" target="T94tbjM7u6pAyk36soGo-11">
          <mxGeometry relative="1" as="geometry" />
        </mxCell>
      </root>
    </mxGraphModel>
  </diagram>
</mxfile>
